<?xml version="1.0" encoding="UTF-8"?>
<svg id="Layer_1" data-name="Layer 1" xmlns="http://www.w3.org/2000/svg" viewBox="0 0 512 512">
  <defs>
    <style>
      .cls-1 {
        fill: #3b82f6;
      }
    </style>
  </defs>
  <!-- Content scaled to 60% with 40% padding for maskable icon safe zone -->
  <g transform="translate(256, 256) scale(1.2) translate(-256, -256)">
    <path class="cls-1" d="M424.75,137.85H87.25c-16.44,0-29.87,13.37-29.87,29.87v176.56c0,16.44,13.37,29.87,29.87,29.87h337.49c16.44,0,29.87-13.37,29.87-29.87V167.71c0-16.44-13.37-29.87-29.87-29.87ZM80.18,177.93l116.73,57.86-116.73,101.18v-159.04ZM256,239.79l-159.63-79.13h319.26l-159.63,79.13ZM219.06,246.77l31.97,15.81c1.59.8,3.3,1.19,5.06,1.19s3.47-.4,5.06-1.19l38.4-19.06,115.37,107.84H98.43l120.63-104.59ZM321.23,232.68l110.6-54.83v158.32l-110.6-103.49Z"/>
  </g>
</svg>
